<svg height="340.667226" viewBox="0 0 517 600" width="293.541593" xmlns="http://www.w3.org/2000/svg"><path d="m482.56225 183.94305c-15.72569-38.16513-30.66507-74.20274-30.66507-135.640338v-5.774704l-5.72241-1.174051-185.12634-39.2071811-.61154-.1042166-.61156-.034785-2.18412-.1042166-.87366-.069431-.91908.2084066-185.213665 39.1203412-5.678717 1.215723v5.774704c0 61.437619-14.895724 97.518639-30.665092 135.640339-15.59465 37.77436-31.7134809 76.89473-31.7134809 141.0677 0 128.30258 90.8595359 182.66291 94.7472759 184.87728.436829.17367 156.601659 83.84172 156.601659 83.84172l1.39784.73985 1.65994.0694 2.22955.10414 2.00938.0694 1.74731-.95521 156.33958-83.66803c4.10613-2.34462 94.96567-56.74838 94.96567-184.96412 0-64.25982-16.11883-103.33675-31.71347-141.0677" fill="#fff"/><path d="m258.42663.00005113-5.1982 1.07216097-185.125537 39.4467039-5.765966 1.135553v5.810066c0 61.854375-14.851568 98.109325-30.57726 136.506215-3.844036 9.33091-7.713741 18.75031-11.369315 28.60106-.06796.16081-.144332.31722-.209472.47958-10.8893321 27.24328-18.6959526 58.4216-19.97416513 100.54334-.009187.27823-.0189958.55592-.0275616.83512-.0401902 1.42637-.0768892 2.85895-.10197985 4.3107-.03846859 2.03732-.06087096 4.09806-.06614875 6.18767-.00073369.32331-.01102467.63184-.01102467.95639 0 3.76675.08640473 7.4646.23703309 11.10197.0105556.25548.0135331.51687.0248056.77173.00015523.004-.00016934.007 0 .0113.0858981 1.93954.19302381 3.86214.31971895 5.76596.0002399.004-.0002399.007 0 .0113.1267657 1.90369.27476955 3.78759.44099166 5.65572.0003246.004-.0003246.007 0 .0113.06672.74943.1503508 1.4833.223252 2.22701.1092107 1.11388.2133993 2.23389.3362562 3.335.2044508 1.8324.4258021 3.64906.6669998 5.44624.1012094.75437.2204844 1.49258.3279876 2.24079.3573937 2.48715.7439212 4.94543 1.1686279 7.36456.057421.32695.1067524.66099.1653718.98672l.00275.0141c.3106698 1.72592.6378821 3.43528.9812065 5.12653.0007479.004.00202.007.00275.0113.3435642 1.69198.7027669 3.3671 1.0776734 5.02455.0008184.004.00192.007.00275.0113.3749629 1.65731.7636918 3.29687 1.1686279 4.91981.0009173.004.00183.01.00275.0141.4049928 1.6228.825929 3.2292 1.2595825 4.81783.0009879.004.00176.007.00275.0113.4336959 1.58848.8812945 3.16139 1.3422684 4.71585l.00275.0113c.46103 1.55434.93523 3.09064 1.422198 4.61113.0011.004.0016.007.0028.0113.48701 1.52035.987765 3.02248 1.499372 4.50914.513017 1.49109 1.037401 2.96358 1.573788 4.42095.0014.004.0014.008.0028.0113.534919 1.45289 1.083116 2.88839 1.639937 4.30793.0014.004.0014.008.0028.0113 26.234375 66.88229 76.019507 96.84688 79.067048 98.61124l156.383907 84.17704 1.74744.91781 5.32773 2.91882 5.32773-2.91882 1.74742-.91781 156.38392-84.17704c3.04754-1.76436 52.83266-31.72895 79.06703-98.61124.001-.003.001-.007.003-.0113.55682-1.41954 1.10501-2.85504 1.63993-4.30793.001-.003.001-.007.003-.0113.53638-1.45737 1.06076-2.92986 1.57378-4.42095.51161-1.48666 1.01236-2.98879 1.49937-4.50914.001-.004.001-.007.003-.0113.48697-1.52049.96117-3.05679 1.4222-4.61113.001-.004.001-.007.003-.0113.46097-1.55446.90858-3.12737 1.34228-4.71585.00097-.004.001-.007.003-.0113.43366-1.58863.85459-3.19503 1.25959-4.81783.00091-.004.001-.01.003-.0141.40494-1.62294.79366-3.2625 1.16862-4.91981.00083-.004.001-.007.003-.0113.37491-1.65745.73411-3.33257 1.07767-5.02455.00074-.004.001-.007.003-.0113.34332-1.69125.67054-3.40061.98121-5.12653l.003-.0141c.0586-.32573.10795-.65977.16537-.98672.42471-2.41913.81123-4.87741 1.16862-7.36456.10753-.74821.22678-1.48642.32799-2.24079.24119-1.79718.46255-3.61384.667-5.44624.12291-1.10111.22705-2.22112.33626-3.335.0729-.74371.15652-1.47758.22324-2.22701.00033-.004-.00032-.007 0-.0113.16623-1.86813.31423-3.75203.441-5.65572.00024-.004-.00024-.007 0-.0113.12672-1.90382.23383-3.82642.31972-5.76596.00017-.004-.00015-.007 0-.0113.0113-.25486.0143-.51625.0248-.77173.15063-3.63737.23704-7.33522.23704-11.10197 0-.32455-.01-.63308-.0113-.95639-.006-2.08961-.0277-4.15035-.0662-6.18767-.0251-1.45175-.0618-2.88433-.10203-4.3107-.008-.2792-.0183-.55689-.0275-.83512-1.27822-42.12174-9.08484-73.30006-19.97417-100.54334-.0652-.16236-.14152-.31877-.20948-.47958-3.65557-9.85075-7.52528-19.27015-11.36931-28.60106-15.72569-38.39689-30.57726-74.65184-30.57726-136.506215v-5.810066l-5.76596-1.135553-185.1274933-39.4467039zm.00013 14.66848387 2.75054.600853 178.9682 38.090653c.96103 61.111779 16.51091 99.202309 31.66872 136.026629 15.76938 38.44058 30.66546 74.69828 30.66546 136.50897 0 32.01157-6.12191 59.22649-15.13153 81.94176l-.003.003c-2.1196 5.34374-4.39715 10.43886-6.79404 15.28864l-.003.003c-7.79112 15.76352-16.82422 28.93853-25.65193 39.65894l-.003.003c-4.07468 4.94813-8.10616 9.37214-11.95088 13.28764-5.02431 5.11679-9.72119 9.35307-13.792 12.75843-.0817.0683-.17242.14736-.25357.21499l-.003.003c-.1907.15894-.36066.29129-.54848.44649-3.33327 2.7546-6.08833 4.82218-8.31545 6.41919-.36204.2596-.8443.62766-1.17137.85717l-.003.003c-.39471.27697-.58769.39504-.92884.62841-1.77857 1.21675-2.98888 1.9791-3.07592 2.03408.21856-.1311-137.03023 72.33952-156.42524 82.77963-19.39501-10.44011-156.64368-82.91073-156.42526-82.77963-.087-.055-1.29734-.81733-3.075918-2.03408-.34115-.23337-.534133-.35144-.928838-.62841l-.0028-.003c-.327067-.22951-.809347-.59757-1.171384-.85717-2.227113-1.59701-4.982172-3.66459-8.315448-6.41919-.187813-.1552-.357778-.28755-.548484-.44649l-.0028-.003c-.08116-.0676-.171921-.14669-.25357-.21499-4.070813-3.40536-8.767701-7.64164-13.792015-12.75843-3.844713-3.9155-7.876195-8.33951-11.950873-13.28764l-.0028-.003c-8.826885-10.72077-17.859995-23.89578-25.651112-39.6593l-.0028-.003c-2.396892-4.84978-4.674432-9.9449-6.794028-15.28864l-.0028-.003c-9.009666-22.71491-15.13157-49.92983-15.13157-81.9414 0-61.81069 14.896076-98.06839 30.665458-136.50897 15.157807-36.82432 30.707689-74.91485 31.668712-136.026629l178.96884-38.090653z"/><g transform="matrix(1.4111733 0 0 1.4111733 2.758632 -.6008)"><path d="m234.45312 65.361328-5.0332 3.355469c-9.44891 5.316082-20.03818 8.86587-29.46498 10.937494-4.9782 1.072698-9.49792 1.802558-12.84375 2.267578-3.26597.45392-5.55948.657654-5.58789.662109-.0482-.0056-2.30407-.207998-5.56446-.662109-3.33932-.465105-7.85746-1.1948-12.83789-2.267578-9.96085-2.145556-21.80004-5.772656-29.47851-10.933594-1.70217-1.118598-3.4037-2.238199-5.10544-3.357457l-2.30273 2.300781-2 1.998047c-4.11473 3.031219-8.05255 6.467677-12.36917 7.072271-2.12692.199888-4.254.40092-6.38095.601563l-.20313 6.585937c-.59483 4.730841-1.244 9.052069-2.95708 12.544925-1.9534 3.859866-5.122581 7.413506-10.507814 9.824226.04199-.61088.128086-1.08306.123047-1.75782-.02333-3.12453-.544606-7.221729-3.335937-10.712891-2.883619-3.632655-7.563734-5.287109-12.785157-5.287109-4.698382 0-9.009163 1.742875-11.86914 5.023438l-.0098.01367-.01172.01172c-3.643611 4.250884-4.548471 9.616402-4.824218 13.896492-.137874 2.14004-.08554 4.04033.0039 5.46093s.2495 2.60734.236328 2.50196l-.03125-.4961c0 .0258.01963.28863.04102.52344-.0045 1.16674.01386 11.61805 7.753906 19.32813 4.745736 4.74574 11.461738 7.08593 19.142578 7.08593 13.601742 0 23.684737-9.35003 30.294917-18.24609 5.82491-7.83923 8.80612-14.83969 9.74414-17.13672h33.37926v230.74788l-10.22105 13.559.57817 21.31226 9.16797-2.49219.0156-.004c5.29717-1.48798 13.46123-3.28907 22.04102-3.28907h.55664c8.54696 0 16.7476 1.80215 22.04102 3.28907l.0137.004 9.10156 2.49219.7168-21.31226-10.29143-13.559v-230.748h33.35002c.94361 2.30756 3.92502 9.29906 9.75391 17.13879 6.61357 8.89511 16.69446 18.24414 30.2832 18.24414 7.68085 0 14.41906-2.33312 19.17188-7.08593l.004-.004.004-.002c7.891-7.92858 7.75781-18.48544 7.75781-19.50586v-.18555-.0566c.0858-.56711.1502-.99795.22266-2.08985.0947-1.42661.14945-3.32902.0137-5.4707-.27157-4.28335-1.17668-9.649484-4.82031-13.900392l-.0195-.02344-.0215-.02344c-2.86835-3.242472-7.15123-5.001953-11.84961-5.001953-5.19874 0-9.8966 1.639072-12.79297 5.292969-2.76187 3.47748-3.30449 7.545046-3.3457 10.662106-.009.70957.0716 1.17803.10937 1.79102-5.3791-2.41083-8.54131-5.95796-10.48828-9.810548-2.33485-4.62013-2.88879-9.645066-2.94336-12.523438-.0455-2.204443-.0911-4.408886-.13672-6.613328l-6.47851-.597656c-4.88695-.555862-9.98181-4.631106-12.30859-7.039063l-.0352-.03711c-1.45493-1.432135-2.91062-2.865106-4.36518-4.296689z"/><path d="m229.94367 282.44c-3.93125 3.93124-10.95797 6.87194-19.81102 8.41968v-34.26687c9.62691 1.67155 17.05605 4.55034 20.86348 8.14109 2.29065 2.19902 3.25024 4.33366 3.25024 7.2434 0 4.20984-1.42392 7.61486-4.3027 10.4627m-75.93193-152.88536h-33.46205c4.76703-6.06712 8.26491-12.31997 10.36983-16.71554h23.09222zm0 76.52007h-1.45363l-8.91496-.0743h-12.69143c-1.57993-.12382-14.45586-1.63937-14.45586-16.09646 0-5.35516 3.59075-9.8436 6.59336-12.75334 9.8436-9.25546 19.53243-13.80581 30.92376-14.36299v43.27469zm0 48.47508v33.95733c-25.04236-8.51255-43.98665-28.69502-56.83286-42.3151-2.16683-2.29065-4.11698-4.36461-6.00521-6.28381 15.19876 6.841 35.56697 12.38189 62.83807 14.30108v.33927zm56.12091-141.71069h23.12317c2.13711 4.39557 5.6028 10.64842 10.40079 16.71554h-3.77648-2.75497s-16.77746-.0248-26.99251-.0248v-16.68459zm102.11961 147.62305-1.23819-1.98111c-6.37667-10.15314-30.95472-43.83188-77.88207-52.25156l-.65129-.099c-.30954-.0495-.99055-.0495-.99055-.0495h-.30954-21.08017v-32.31673c36.3718 20.83253 62.68331 34.23592 73.54841 33.98828 20.27534-.49527 29.37603-22.65885 29.99512-28.5712v-.40118c.0248-.24763.0248-.55718.0248-.55718 0-17.98469-10.61747-29.99512-26.37342-29.99512-12.69144 0-21.04921 7.5839-25.04237 16.68459-9.47214-8.85305-13.06289-19.99675-14.39394-26.52819l-.52747-2.69306-.46556-2.35256c7.46009 8.11014 17.58228 14.95113 30.36658 14.95113 9.71978 0 17.67514-3.00261 23.55654-8.91496 8.60541-8.57446 9.5031-20.3682 9.56501-23.3089.49527-3.80743 1.60964-17.45846-6.09808-26.34247-4.05507-4.70511-9.75074-7.21245-16.52982-7.21245-7.70773 0-13.62008 2.6002-17.64419 7.58391-1.17628 1.51554-2.04301 3.06452-2.75497 4.67416-2.19902-3.68361-2.81688-7.8625-2.87879-10.8032v-3.0026-2.19903-6.74812l-6.68622-.74292-2.26093-.19811-2.97165-.37145c-2.41447-.22288-5.60281-2.16683-8.54351-5.2004l-1.9811-1.9811-1.48582-1.54773-4.45748-4.55035-5.29326 3.55979-1.76566 1.14409-2.32036 1.67156c-11.57707 7.73867-33.70969 11.70088-44.42002 12.75334-10.71034-1.05246-32.812-5.01467-44.38907-12.75334l-2.38227-1.67156-1.73347-1.14409-5.29325-3.55979-4.45748 4.55035-1.48583 1.54773-1.9811 1.9811c-2.9407 3.03357-6.12904 4.98371-8.5435 5.2004l-2.97166.37145-2.22874.19811-6.71717.74292v6.74812 2.19903l-.0248 3.0026c0 2.9407-.68101 7.11959-2.9407 10.8032-.7132-1.60964-1.54774-3.15738-2.75497-4.67416-3.96221-4.98371-9.93647-7.58391-17.58228-7.58391-6.81004 0-12.53666 2.50734-16.59173 7.21245-7.73868 8.91496-6.5624 22.6279-6.09808 26.37342 0 2.90975.99055 14.73445 9.56501 23.27795 5.44803 5.47898 12.72239 8.41968 21.51353 8.82209-16.49887 13.43435-35.93843 32.28577-36.95994 47.48454v.65129l-.30954 1.48582.46556 1.45611.30954.58691c.80483 2.50733 5.38612 14.51776 20.58489 26.65201-12.87716.58938-20.24439 11.1437-21.6683 21.17302-2.10492 14.45586 12.44379 24.79473 20.0277 29.1903-.52747 6.71718 1.70127 15.41545 9.78169 23.18509 10.77224 10.43174 25.69242 11.26751 31.57381 11.08179 11.79375 8.48159 32.96678 13.43434 45.34866 15.75595v8.45063l-.34174.43337-7.02672 9.47214v.0248l-.30954.30955-1.26791 1.70374-1.36201 1.76318v2.69306.86674s0 1.14408.0248 1.17628c0 0 .0248.77263.33926 9.31737v4.36461 3.25025l.30955 9.78169 9.41023-2.63115 3.12643-.92865 4.17889-1.20847c4.9218-1.36201 12.41284-2.97165 20.33725-2.97165h.55718c7.95536 0 15.41545 1.60964 20.33725 2.97165v-.14858c1.32981.49528 2.75497.92864 4.33366 1.36201l3.15738.92864 9.41024 2.63115.30954-9.78169v-3.25025-4.36461l.30955-9.31737v-1.17628-.86673-2.69306l-1.57745-2.16683-.52747-.68101-.77263-.95836.30955.33927c-1.08218-1.57993-2.87879-4.02412-6.09808-8.26491l-1.48583-1.9811v-5.8814c21.29685-3.09547 67.01696-14.64158 100.32424-58.3806l1.42392-1.88947 3.21929-4.2408-2.84784-4.48843z" fill="#fff"/><path d="m234.45312 65.361328-5.0332 3.355469c-9.44891 5.316082-20.03818 8.86587-29.46498 10.937494-4.9782 1.072698-9.49792 1.802558-12.84375 2.267578-3.26597.45392-5.55948.657654-5.58789.662109-.0482-.0056-2.30407-.207998-5.56446-.662109-3.33932-.465105-7.85746-1.1948-12.83789-2.267578-9.96085-2.145556-21.80004-5.772656-29.47851-10.933594-1.70217-1.118598-3.4037-2.238199-5.10544-3.357457l-2.30273 2.300781-2 1.998047c-4.11473 3.031219-8.05255 6.467677-12.36917 7.072271-2.12692.199888-4.254.40092-6.38095.601563l-.20313 6.585937c-.59483 4.730841-1.244 9.052069-2.95708 12.544925-1.9534 3.859866-5.122581 7.413506-10.507814 9.824226.04199-.61088.128086-1.08306.123047-1.75782-.02333-3.12453-.544606-7.221729-3.335937-10.712891-2.883619-3.632655-7.563734-5.287109-12.785157-5.287109-4.698382 0-9.009163 1.742875-11.86914 5.023438l-.0098.01367-.01172.01172c-3.643611 4.250884-4.548471 9.616402-4.824218 13.896492-.137874 2.14004-.08554 4.04033.0039 5.46093s.2495 2.60734.236328 2.50196l-.03125-.4961c0 .0258.01963.28863.04102.52344-.0045 1.16674.01386 11.61805 7.753906 19.32813 4.745736 4.74574 11.461738 7.08593 19.142578 7.08593 13.601742 0 23.684737-9.35003 30.294917-18.24609 5.82491-7.83923 8.80612-14.83969 9.74414-17.13672h33.37926v230.74788l-10.22105 13.559.57817 21.31226 9.16797-2.49219.0156-.004c5.29717-1.48798 13.46123-3.28907 22.04102-3.28907h.55664c8.54696 0 16.7476 1.80215 22.04102 3.28907l.0137.004 9.10156 2.49219.7168-21.31226-10.29143-13.559v-230.748h33.35002c.94361 2.30756 3.92502 9.29906 9.75391 17.13879 6.61357 8.89511 16.69446 18.24414 30.2832 18.24414 7.68085 0 14.41906-2.33312 19.17188-7.08593l.004-.004.004-.002c7.891-7.92858 7.75781-18.48544 7.75781-19.50586v-.18555-.0566c.0858-.56711.1502-.99795.22266-2.08985.0947-1.42661.14945-3.32902.0137-5.4707-.27157-4.28335-1.17668-9.649484-4.82031-13.900392l-.0195-.02344-.0215-.02344c-2.86835-3.242472-7.15123-5.001953-11.84961-5.001953-5.19874 0-9.8966 1.639072-12.79297 5.292969-2.76187 3.47748-3.30449 7.545046-3.3457 10.662106-.009.70957.0716 1.17803.10937 1.79102-5.3791-2.41083-8.54131-5.95796-10.48828-9.810548-2.33485-4.62013-2.88879-9.645066-2.94336-12.523438-.0455-2.204443-.0911-4.408886-.13672-6.613328l-6.47851-.597656c-4.88695-.555862-9.98181-4.631106-12.30859-7.039063l-.0352-.03711c-1.45493-1.432135-2.91062-2.865106-4.36518-4.296689z"/><path d="m199.32668 323.331 7.27539-.65039c18.3871-2.22874 64.81909-12.19565 98.06446-55.8418l1.39257-1.85742-1.26953-2.01172c-5.97426-9.44119-28.91196-40.9539-72.71289-48.8164l-.27734-.0312h-.33986-25.29101-49.31055-25.85937c-7.4037-.44163-21.80273-6.04956-21.80273-23.80274 0-8.07918 4.89083-14.39463 9.00781-18.29492h-.10156c11.26751-10.58652 24.29905-17.36555 41.72656-16.375l21.51465 1.76367 19.46922 2.38575c6.33094 3.66211 16.02947 9.2968 26.54297 15.18359-.0194-.004-.0372-.004-.0566-.008 1.09401.61342 2.22846 1.23414 3.33984 1.85156 1.09637.60856 2.16148 1.2014 3.26953 1.81055 1.00806.5544 2.00375 1.09849 3.01758 1.65039 1.97425 1.07478 3.94542 2.13461 5.91992 3.18555.51933.27623 1.03656.55834 1.55469.83203 2.60478 1.37702 5.1758 2.7063 7.71094 3.99219 1.23794.62714 2.46205 1.24062 3.67187 1.83789 1.02405.50621 2.02264.98748 3.02149 1.46875.82424.39662 1.64302.78833 2.44726 1.16601.90136.42378 1.78739.83495 2.66016 1.23242.72105.32808 1.41399.63279 2.11328.94141 5.40032 2.38502 10.15292 4.19484 13.7207 5.03711.11248.0268.21796.0493.32813.0742.48551.10877.94948.20021 1.38867.27148.24252.04.48123.0773.70899.10547.18623.0225.36877.0422.54492.0566.3443.0292.67239.0456.97656.043.0339-.0004.076.005.10937.004.93788-.0233 1.84394-.11487 2.72071-.26563.87482-.15042 1.72065-.36086 2.53515-.62305.40674-.13086.80547-.27379 1.19727-.42968l.002-.002c.39174-.15593.77743-.32288 1.1543-.50195l.002-.002c.37681-.17911.74542-.36801 1.10742-.56836l.002-.002c.36195-.20038.71723-.41112 1.06445-.63085l.002-.002c.34718-.21976.687-.44832 1.01954-.68554l.002-.002c.0819-.0585.15917-.12217.24023-.18164.88172-.64702 1.713-1.34763 2.49024-2.09179.0223-.0213.0462-.0411.0684-.0625l.002-.002c.57813-.55735 1.12792-1.13722 1.64844-1.73047l.002-.002c.52044-.59327 1.01125-1.20045 1.47461-1.81445l.002-.002c.9271-1.22872 1.73972-2.48435 2.44141-3.70507l.002-.002c.35054-.60993.6737-1.21166.96875-1.79687l.002-.002c.29497-.58511.56078-1.15396.80079-1.69921l.002-.002c.2399-.54511.45123-1.06652.63672-1.55664l.002-.002c.18537-.48992.3431-.94933.47461-1.36914.26371-.84178.42036-1.5275.4707-1.9961v-.01l.0293-.20508v-.1543c0-10.71033-4.89147-22.10351-18.69726-22.10351-10.76388 0-16.27473 7.06659-18.63868 13.60547-.82333 1.31335-1.16851 3.11089-1.35156 5.63281-.002.015-.004.0319-.006.0469 0 0-.11441 1.13652-.23437 2.31641-.0246.14291-.042.27255-.0723.42188l-2.32617-1.46875c-.27801-.17715-.54448-.3606-.81641-.54102-.44189-.29763-.88563-.59407-1.3125-.89844-.15502-.10972-.30993-.21932-.46289-.33008-.68825-.50086-1.36087-1.00809-2.00976-1.52539-.0789-.0632-.15411-.12795-.23243-.1914-.4794-.38643-.94044-.77912-1.39843-1.17383-12.0275-10.46688-16.46094-24.0807-18.06641-31.86719l-.55664-2.72272h-127.31641l-.86718.52546c-9.43902 6.29783-23.201744 16.53994-34.757816 27.39453h-.0332c-.5471.51621-1.061044 1.03812-1.597657 1.55664-.456787.43962-.907293.87943-1.355468 1.32031-2.849693 2.81347-5.530723 5.64209-7.90625 8.43945-6.066267 7.13092-10.229471 14.03358-10.625 19.76368l-.03125.64843.216796.61914c.88207 2.72129 6.883372 18.26247 30.16211 31.26758.130794.0733.264594.14565.396484.21875 1.077568.59566 2.191756 1.18448 3.34375 1.76758.552915.28064 1.103343.56264 1.673828.83984.54251.26291 1.099593.52172 1.658204.78125.295569.13769.578773.27739.878906.41407l.01758-.01c14.721103 6.68789 34.906103 12.15273 62.595703 13.9082.12382 0 49.4336 1.48633 49.4336 1.48633 13.99153 1.73347 24.64115 5.54055 30.42969 11.01953 3.80743 3.62171 5.69531 7.83211 5.69531 12.75391 0 6.28381-2.22913 11.66996-6.59375 15.97266-8.14109 8.07918-22.13153 10.52496-29.77735 11.29882 0 0-5.06461 1.66139-6.95285 1.25899-18.56042 1.09845-23.65368-.2097-35.27031-1.8165-1.9192 0-5.94336-1.11328-5.94336-1.11328-29.77844-7.80059-51.44726-30.83142-65.779298-46.12305-10.988922-11.63897-16.622598-17.14795-21.080078-17.30273-10.710332-.24763-14.888241 9.06878-15.662109 14.64062-1.919192 13.03194 19.59416 23.2782 19.841797 23.3711.433366.21668.897302.4337 1.392578.65039-.309548.83577-.525391 1.51562-.525391 1.51562-1.331052 3.83838-1.394702 12.35069 6.777344 20.24414 10.679377 10.27697 27.334627 8.94702 28.015627 8.91602 0 0 .30823-.0625.67969-.0625l.58789.40234c10.43174 8.69828 34.48452 13.86869 44.32812 15.66406l7.81809 1.63004zm27.97215-148.35639c-.006-.003-.0118-.007-.0176-.01l-.0312.002c.0169.003.032.005.0488.008z" fill="#d30c14"/><path d="m159.668 106.49997v70.74788h43.72v-70.748z"/><path d="m159.668 286.49997v70.74788h43.72v-70.748z"/></g></svg>